<svg width="85" height="56" viewBox="0 0 85 56" fill="none" xmlns="http://www.w3.org/2000/svg">
<path d="M44.75 2.5C44.75 2.08579 44.4142 1.75 44 1.75C43.5858 1.75 43.25 2.08579 43.25 2.5H44.75ZM43.25 53.5C43.25 53.9142 43.5858 54.25 44 54.25C44.4142 54.25 44.75 53.9142 44.75 53.5H43.25ZM19 27.25C18.5858 27.25 18.25 27.5858 18.25 28C18.25 28.4142 18.5858 28.75 19 28.75V27.25ZM69.5 28.75C69.9142 28.75 70.25 28.4142 70.25 28C70.25 27.5858 69.9142 27.25 69.5 27.25V28.75ZM43.25 2.5V53.5H44.75V2.5H43.25ZM19 28.75H69.5V27.25H19V28.75Z" fill="#FFED00"/>
</svg>
