<svg width="46" height="57" viewBox="0 0 46 57" fill="none" xmlns="http://www.w3.org/2000/svg">
<path d="M19.2723 8.40353H24.7329V0.000205994H2.40283L30.4738 47.3611H42.3628L19.2723 8.40353Z" fill="#FFED00"/>
<path d="M24.7322 8.40353H24.7329V0.000205994H24.7322V8.40353Z" fill="#FAE920"/>
<path d="M38.418 22.901C42.8699 20.6652 46 16.3288 46 11.1795C46 4.133 41.1309 -7.62939e-06 33.4098 -7.62939e-06H24.7322H24.733V8.40352H24.7322V8.40581L30.6969 8.4015C34.3139 8.4015 36.3315 10.7051 35.4965 14.1606C34.7944 17.0822 32.3354 19.3179 29.1947 19.6673L25.949 19.6682L25.9517 19.6728H14.0629L14.0621 19.6714L8.67137 19.6728L2.38618 47.3603H24.993C26.728 47.3656 28.4582 47.1838 30.1521 46.8182L25.2528 38.5523H14.6982L17.0846 27.528H30.6077C31.1723 27.6575 31.7012 27.9051 32.1577 28.2536C33.1118 29.0735 33.5186 30.6426 33.3855 32.2147L39.2261 42.0687C42.1794 39.161 43.8437 35.2868 43.8437 31.0312C43.8436 27.305 42.2437 24.3238 38.418 22.901ZM5.77642 52.183C5.77715 52.3367 5.75427 52.4895 5.70853 52.6365C5.66504 52.7767 5.60433 52.9113 5.52774 53.0373C5.45459 53.1575 5.36821 53.2697 5.27013 53.3717C5.17808 53.468 5.07496 53.5537 4.96282 53.6271C5.14194 53.7252 5.28438 53.8763 5.36955 54.0585C5.46046 54.2487 5.50679 54.4563 5.5052 54.6661C5.5059 54.9443 5.449 55.2199 5.33789 55.4762C5.22564 55.7356 5.05944 55.9694 4.84978 56.1631C4.62435 56.3698 4.36048 56.5326 4.07234 56.6429C3.74562 56.7673 3.39718 56.8286 3.04643 56.8235H0L1.34692 50.6684H4.14003C4.65214 50.6684 5.05291 50.8063 5.34231 51.0823C5.63172 51.3582 5.77642 51.7251 5.77642 52.183ZM2.18762 54.3139L1.95255 55.4233H3.23655C3.30737 55.4258 3.37797 55.4143 3.44404 55.3893C3.5101 55.3644 3.57023 55.3265 3.62074 55.2781C3.7166 55.187 3.78664 55.0733 3.82407 54.9481C3.84263 54.8792 3.85025 54.8079 3.84668 54.7368C3.84475 54.6652 3.82784 54.5948 3.79697 54.5298C3.76782 54.4695 3.72447 54.4167 3.67045 54.3757C3.6103 54.3328 3.53698 54.3111 3.46249 54.314L2.18762 54.3139ZM2.68484 52.0686L2.44072 53.1693H3.4712C3.54816 53.1695 3.62419 53.1531 3.69378 53.1211C3.76337 53.0891 3.82477 53.0424 3.87351 52.9843C3.97438 52.8799 4.04734 52.7529 4.08596 52.6146C4.11703 52.4894 4.10433 52.3577 4.04987 52.2403C3.99558 52.1259 3.88409 52.0687 3.71539 52.0687L2.68484 52.0686ZM7.14131 56.0222L6.59893 56.8586H4.87239L4.91761 56.6385L9.05784 50.6335H9.88948L11.4534 56.6385L11.4081 56.8586H9.69957L9.47356 56.0133L7.14131 56.0222ZM7.95491 54.7102H9.26567L8.93118 53.2573L7.95491 54.7102ZM13.9571 53.5832L13.2519 56.8586H11.5978L12.9447 50.6686H13.46L16.0814 53.7679L16.7594 50.6948H18.4137L17.0667 56.8761H16.6421L13.9571 53.5832ZM19.5798 56.0222L19.0374 56.8586H17.3108L17.356 56.6385L21.4962 50.6335H22.3278L23.8917 56.6385L23.8465 56.8586H22.138L21.912 56.0133L19.5798 56.0222ZM20.3934 54.7102H21.7041L21.3697 53.2573L20.3934 54.7102ZM26.3956 53.5832L25.6904 56.8586H24.0362L25.3831 50.6686H25.8983L28.52 53.7679L29.1979 50.6948H30.8521L29.5053 56.8761H29.0804L26.3956 53.5832ZM32.0181 56.0222L31.4757 56.8586H29.7492L29.7943 56.6385L33.9345 50.6335H34.7661L36.33 56.6385L36.2849 56.8586H34.5761L34.3501 56.0133L32.0181 56.0222ZM32.8317 54.7102H34.1425L33.8079 53.2573L32.8317 54.7102ZM38.0113 54.9655C37.986 55.0577 37.994 55.1557 38.0339 55.2429C38.0754 55.3246 38.1396 55.3932 38.2192 55.441C38.311 55.4968 38.4119 55.537 38.5175 55.5597C38.636 55.5866 38.7574 55.5999 38.8791 55.5993C39.0099 55.5989 39.1403 55.5841 39.2678 55.5554C39.3942 55.5283 39.516 55.4838 39.6294 55.4232C39.7321 55.3694 39.8227 55.2961 39.8959 55.2077C39.9646 55.1242 40.0013 55.0199 39.9996 54.9129C40.0031 54.8608 39.9956 54.8086 39.9778 54.7594C39.96 54.7103 39.9321 54.6651 39.8959 54.6266C39.8218 54.5564 39.7321 54.5036 39.6338 54.4725C39.524 54.4365 39.4103 54.4128 39.295 54.4022C39.1744 54.3905 39.063 54.3816 38.9606 54.3757C38.7135 54.3591 38.4684 54.3208 38.2283 54.2612C38.0053 54.2077 37.7931 54.1184 37.6002 53.997C37.4199 53.8833 37.2685 53.7314 37.1572 53.5525C37.0402 53.3532 36.9823 53.1261 36.9899 52.8966C36.9806 52.5347 37.0679 52.1767 37.2432 51.8576C37.4076 51.5686 37.6361 51.3189 37.912 51.1267C38.1979 50.9291 38.5179 50.7829 38.8567 50.6952C39.2087 50.6015 39.572 50.5542 39.9369 50.5545C40.2327 50.5529 40.527 50.5959 40.8093 50.6821C41.0677 50.7587 41.3064 50.8877 41.5099 51.0608C41.7038 51.2298 41.8461 51.4476 41.9211 51.6904C42.0024 51.9427 42.004 52.2362 41.9257 52.5707H40.3797C40.3935 52.4764 40.3794 52.3802 40.339 52.2935C40.3006 52.2152 40.2413 52.1483 40.1674 52.0998C40.0875 52.048 39.9987 52.0107 39.9052 51.9896C39.803 51.966 39.6983 51.9542 39.5933 51.9545C39.4755 51.9541 39.3583 51.9704 39.2454 52.003C39.1386 52.033 39.0367 52.0775 38.9426 52.135C38.8546 52.1884 38.7804 52.2607 38.7256 52.3463C38.6711 52.4322 38.6429 52.5315 38.6442 52.6324C38.6393 52.7051 38.6586 52.7774 38.6993 52.8385C38.74 52.8996 38.7999 52.9463 38.8701 52.9715C39.0736 53.045 39.2866 53.091 39.503 53.108C39.7837 53.1352 40.0627 53.1764 40.3391 53.2313C40.5816 53.2771 40.815 53.3603 41.0305 53.4778C41.223 53.5834 41.3847 53.7349 41.5006 53.9181C41.6235 54.1329 41.683 54.3767 41.6725 54.6224C41.6822 54.9912 41.6 55.3568 41.4329 55.6879C41.278 55.9817 41.0533 56.2353 40.7774 56.4275C40.4811 56.6298 40.1484 56.7761 39.7967 56.859C39.402 56.955 38.9966 57.0023 38.5898 56.9999C38.2691 57.0021 37.9497 56.9606 37.6408 56.8766C37.3663 56.805 37.1105 56.6774 36.8904 56.5024C36.6858 56.3356 36.5338 56.1159 36.452 55.8685C36.3645 55.6131 36.3599 55.3123 36.4382 54.9661L38.0113 54.9655Z" fill="white"/>
</svg>
