<svg width="117" height="79" viewBox="0 0 117 79" fill="none" xmlns="http://www.w3.org/2000/svg">
<path d="M26.0337 75.5871C23.8372 74.776 22.1802 73.3469 20.9852 71.0685C17.7487 65.12 21.7949 57.627 28.6156 56.9317C34.3188 56.3524 39.2513 60.7941 39.2513 66.5491C39.2513 69.2528 38.6344 70.8364 36.9003 72.8448C34.3573 75.7416 29.7716 76.9004 26.0337 75.5871ZM32.7774 71.2226C34.0101 70.1029 34.6271 68.5962 34.6271 66.665C34.6271 62.9571 32.7389 60.6783 29.6175 60.6783C27.4591 60.6783 25.9567 61.6825 25.147 63.6137C24.0299 66.3174 24.8388 70.566 26.6499 71.5706C28.8083 72.729 31.2745 72.5745 32.7774 71.2226ZM64.9928 75.6644C63.1046 75.1623 60.1374 72.4972 59.2511 70.5274C57.7097 67.1285 58.673 62.4163 61.4865 59.674C66.3801 54.9229 74.5885 56.5451 77.247 62.8026C78.1719 64.9655 78.0948 68.5962 77.0933 70.6046C76.0528 72.6131 73.0856 75.2395 71.2741 75.7416C69.5785 76.2051 66.9196 76.1665 64.9928 75.6644ZM70.5419 71.802C71.1199 71.5702 71.9673 70.7978 72.4297 70.0639C73.1234 68.9824 73.2393 68.2872 73.0848 66.0084C72.9307 63.4592 72.8536 63.2274 71.5049 61.9919C70.3874 60.949 69.7708 60.6786 68.5377 60.6786C66.2641 60.6786 64.7612 61.6056 63.8745 63.4982C62.1404 67.322 63.6819 71.4934 67.0733 72.2276C68.3839 72.5358 68.7307 72.4972 70.5419 71.802ZM9.19385 68.2099V61.1031L6.41931 60.9873L3.60624 60.8714L3.49064 59.2492L3.37503 57.5883H18.8276V61.0645H13.0474V75.3554H9.19385V68.2099ZM46.8427 75.085C46.6886 74.9691 46.573 73.3469 46.573 71.493C46.573 69.6777 46.4189 68.0168 46.2262 67.8237C46.0335 67.592 44.4921 65.2359 42.758 62.5322L39.6367 57.5883H44.4921L46.573 61.0645C47.729 62.9571 48.808 64.5407 48.9236 64.5407C49.0392 64.5407 50.0797 63.0343 51.2358 61.219C52.3533 59.3647 53.5093 57.8197 53.7405 57.7038C53.9721 57.6266 55.0893 57.588 56.1683 57.6652L58.1721 57.7811L54.7039 63.1884C51.4284 68.2482 51.1972 68.7117 51.1587 70.7201C51.1201 72.6513 51.0431 73.2693 50.8893 74.8915C50.8119 75.394 47.3052 75.5871 46.8427 75.085ZM84.7228 68.2099V61.1031L81.9483 60.9873L79.1352 60.8714L79.0196 59.2492L78.904 57.5883H94.7805L94.6649 59.2492L94.5493 60.8714L91.5821 60.9873L88.5764 61.1031V75.3554H84.7228V68.2099ZM94.3567 75.0464C94.3567 74.8919 95.8981 70.9519 97.7477 66.2787L101.139 57.7815L103.875 57.6656C105.841 57.5883 106.649 57.7042 106.804 58.0518C106.881 58.3222 108.461 62.2615 110.311 66.7809C112.122 71.2999 113.625 75.085 113.625 75.1623C113.625 75.2781 112.662 75.3554 111.467 75.3554H109.347L108.538 73.4242L107.728 71.493H100.098L99.2892 73.4242L98.4799 75.3554H96.4375C95.2815 75.3554 94.3567 75.2009 94.3567 75.0464ZM106.303 68.0555C106.303 67.8623 105.956 66.8581 105.493 65.8153C105.069 64.811 104.53 63.5368 104.298 62.9957C103.952 62.1073 103.836 62.1846 102.834 64.7338C102.217 66.2401 101.716 67.6692 101.716 67.9396C101.678 68.2486 102.372 68.4031 103.99 68.4031C105.262 68.4031 106.303 68.2486 106.303 68.0555ZM49.7714 50.5974C35.9758 48.4731 25.5713 42.216 21.3324 33.4483C15.9375 22.286 21.8334 10.5057 35.9758 4.2872C44.6848 0.463421 56.5532 -0.88842 67.7674 0.579292C85.4936 2.97398 97.8248 13.0548 97.8248 25.1442C97.8248 36.77 87.4974 46.3487 71.0429 49.9408C67.0352 50.7905 53.8176 51.2154 49.7714 50.5974ZM55.0893 46.9281C51.8527 44.1472 49.887 38.315 49.3861 29.8177L49.0778 25.0283L45.4169 24.2944C41.0625 23.4061 36.8621 21.7839 34.0101 19.8913C31.8525 18.4622 30.7736 17.2262 29.6175 14.8316L28.9624 13.4411L27.6907 15.2564C24.3382 20.2003 24.0684 26.4188 26.9586 32.3282C30.5809 39.7054 40.2921 45.7694 51.1972 47.5461C52.7772 47.7778 54.3571 48.0482 54.6654 48.1255C56.6307 48.5117 56.7078 48.2799 55.0893 46.9281ZM68.2683 47.0826C78.5957 44.7265 86.7267 39.2419 90.1563 32.3282C92.0831 28.4272 92.7382 24.8738 92.122 21.6294C91.6596 19.1961 90.1563 15.7972 88.885 14.4453L88.0758 13.5956L87.228 15.4109C85.2623 19.5437 79.7133 22.6722 71.4282 24.3717L68.3454 24.9897L67.883 30.1653C67.1508 38.9716 65.6865 43.4906 62.5266 46.6191L60.9085 48.2799L62.8738 48.0482C63.9909 47.9323 66.4186 47.5075 68.2683 47.0826ZM60.9852 38.5853C62.9119 36.6155 64.6849 31.015 64.6849 26.805V25.5304H52.623L52.8542 28.5431C53.1625 32.869 54.4342 36.5769 56.2068 38.3536C58.0565 40.2075 59.2896 40.2848 60.9852 38.5853ZM64.1836 19.1961C64.4148 18.9643 63.0661 14.1363 62.3724 12.8231C61.5247 11.1236 59.5594 9.30832 58.5574 9.30832C56.7848 9.30832 54.7428 12.2051 53.7405 16.1061C53.3941 17.4194 53.124 18.694 53.124 18.8871C53.124 19.1188 53.8558 19.3892 54.781 19.4664C56.2839 19.6209 63.9909 19.4278 64.1836 19.1961ZM50.1568 15.4882C51.2743 9.57869 53.3167 5.48454 55.9756 3.86233L57.1702 3.12848H55.2049C50.388 3.12848 41.5249 5.36867 38.6737 7.29987C37.8259 7.87923 36.824 8.9607 36.4001 9.69456C35.745 10.9305 35.745 11.1623 36.2845 12.4755C37.4791 15.295 42.0648 17.5739 49.2708 18.9257C49.3861 18.9643 49.7714 17.3807 50.1568 15.4882ZM74.1642 17.3035C78.4416 15.7585 81.2547 13.3638 81.2547 11.2395C81.2547 9.65594 79.3665 7.64749 76.7461 6.41152C73.7018 4.94381 67.9986 3.59197 63.8368 3.3216L60.253 3.05123L61.4476 3.86233C64.3377 5.79353 66.1489 9.96493 67.6132 18.0373C67.7674 18.8485 67.8059 18.8485 70.1569 18.3463C71.5053 18.076 73.2779 17.6125 74.1642 17.3035Z" fill="#2D2A26"/>
</svg>
